# xmcd
#
# Track frame offsets: 
#        150
#        17077
#        33609
#        51799
#        72164
#        92209
#        112655
#        128250
#        146677
#        164076
#        180364
#        196335
#        212687
#        229751
#
# Disc length: 3283 seconds
#
# Revision: 1
# Processed by: cddbd v1.5.2PL0 Copyright (c) Steve Scherf et al.
# Submitted via: ExactAudioCopyFreeDBPlugin 1.0
#
DISCID=ba0cd10e
DTITLE=Ciara - Fantasy Ride
DYEAR=2009
DGENRE=R&B
TTITLE0=01. Ciara To The Stage
TTITLE1=02. Love Sex Magic Feat. Justin Timberlake
TTITLE2=03. High Price Feat. Ludacris
TTITLE3=04. Turntables Feat. Chris Brown
TTITLE4=05. Like A Surgeon
TTITLE5=06. Never Ever Feat. Young Jeezy
TTITLE6=07. Lover's Thing Feat. The-Dream
TTITLE7=08. Work Feat. Missy Elliott
TTITLE8=09. Pucker Up
TTITLE9=10. G Is For Girl (A-Z)
TTITLE10=11. Keep Dancin' On Me
TTITLE11=12. Tell Me What Your Name Is
TTITLE12=13. I Don't Remember
TTITLE13=14. Echo
EXTD=
EXTT0=
EXTT1=
EXTT2=
EXTT3=
EXTT4=
EXTT5=
EXTT6=
EXTT7=
EXTT8=
EXTT9=
EXTT10=
EXTT11=
EXTT12=
EXTT13=
PLAYORDER=
